<svg xmlns="http://www.w3.org/2000/svg" xmlns:xlink="http://www.w3.org/1999/xlink" width="500" zoomAndPan="magnify" viewBox="0 0 375 374.999991" height="500" preserveAspectRatio="xMidYMid meet" version="1.0"><defs><g/></defs><path stroke-linecap="butt" transform="matrix(0.774433, 0, 0, 0.774433, 2.248118, 100.376235)" fill="none" stroke-linejoin="miter" d="M 0.00242998 57.631269 C 0.00242998 68.496067 0.00242998 79.36591 0.00242998 90.230709 L 14.569532 80.228436 L 20.077592 80.228436 L 20.077592 170.001734 L 42.679803 170.001734 L 42.679803 80.228436 L 62.760008 80.228436 L 62.760008 57.631269 C 41.867717 57.631269 20.945161 57.631269 0.00242998 57.631269 Z M 133.290407 170.001734 C 114.133255 170.001734 94.996279 170.001734 75.889567 170.001734 L 75.808863 170.001734 C 74.341056 170.001734 73.090142 169.487245 72.066208 168.463311 C 71.042273 167.439377 70.532828 166.193506 70.532828 164.725699 L 70.532828 164.644995 C 70.532828 128.998973 70.532828 93.327731 70.532828 57.631269 C 89.695024 57.631269 108.85722 57.631269 128.014372 57.631269 C 129.487223 57.631269 130.733093 58.155846 131.757027 59.205 C 132.780962 60.254154 133.290407 61.489937 133.290407 62.907304 Z M 110.7689 80.228436 L 93.129995 80.228436 L 93.129995 147.480227 L 110.7689 147.480227 Z M 151.065499 109.28698 L 151.065499 126.532452 C 151.065499 128.000259 151.590077 129.261262 152.639231 130.310416 C 153.688385 131.364614 154.949388 131.889191 156.422239 131.889191 L 171.226409 131.889191 L 171.226409 170.001734 L 193.747916 170.001734 L 193.747916 131.889191 L 213.903782 131.889191 C 213.903782 108.737183 213.903782 85.585175 213.903782 62.433167 C 213.903782 61.121724 213.429645 59.991866 212.486415 59.048636 C 211.543185 58.105406 210.413327 57.631269 209.101884 57.631269 L 191.306615 57.631269 L 191.306615 109.28698 L 173.66771 109.28698 L 173.66771 57.631269 C 162.797868 57.631269 151.933069 57.631269 141.063227 57.631269 L 151.065499 72.279075 Z M 231.754535 108.025977 C 231.754535 110.12933 232.753249 111.728281 234.750677 112.832919 L 271.914946 131.102325 L 271.914946 147.480227 L 254.276042 147.480227 L 254.276042 134.486856 L 231.678875 123.778422 C 231.678875 139.213094 231.678875 154.617502 231.678875 170.001734 C 250.891511 170.001734 270.078926 170.001734 289.241122 170.001734 C 290.658489 170.001734 291.889228 169.487245 292.943426 168.463311 C 293.99258 167.439377 294.517157 166.193506 294.517157 164.725699 L 294.517157 116.21745 L 254.276042 96.374313 L 254.276042 80.228436 L 271.914946 80.228436 L 271.914946 93.221807 L 294.517157 103.617512 L 294.517157 62.907304 C 294.517157 61.489937 293.99258 60.254154 292.943426 59.205 C 291.889228 58.155846 290.658489 57.631269 289.241122 57.631269 C 266.719615 57.631269 244.198109 57.631269 221.676602 57.631269 L 231.678875 72.279075 Z M 312.36791 72.279075 L 312.36791 170.001734 L 334.889417 170.001734 L 334.889417 119.919754 L 351.504387 170.158098 L 375.518921 170.001734 L 375.286897 169.371233 L 375.286897 57.631269 L 352.76539 57.631269 L 352.76539 102.043781 L 337.880515 57.631269 C 326.017003 57.631269 314.15349 57.631269 302.289977 57.631269 Z M 405.893952 94.245741 L 405.893952 57.787633 L 383.291741 57.787633 L 383.291741 80.30914 Z M 413.666772 57.631269 C 413.666772 68.496067 413.666772 79.36591 413.666772 90.230709 L 428.233875 80.228436 L 433.746978 80.228436 L 433.746978 170.001734 L 456.349189 170.001734 L 456.349189 80.228436 L 476.429395 80.228436 L 476.429395 57.631269 C 455.532059 57.631269 434.614548 57.631269 413.666772 57.631269 Z M 413.666772 57.631269 " stroke="#712900" stroke-width="2.217504" stroke-opacity="1" stroke-miterlimit="4"/><g fill="#ffd479" fill-opacity="1"><g transform="translate(2.248118, 232.029907)"><g><path d="M 0 -87.015625 C 0 -78.597656 0 -70.1875 0 -61.78125 L 11.28125 -69.515625 L 15.546875 -69.515625 L 15.546875 0 L 33.046875 0 L 33.046875 -69.515625 L 48.609375 -69.515625 L 48.609375 -87.015625 C 32.421875 -87.015625 16.21875 -87.015625 0 -87.015625 Z M 0 -87.015625 "/></g></g></g><g fill="#ffd479" fill-opacity="1"><g transform="translate(56.870882, 232.029907)"><g><path d="M 48.609375 0 C 33.765625 0 18.941406 0 4.140625 0 L 4.078125 0 C 2.941406 0 1.976562 -0.394531 1.1875 -1.1875 C 0.394531 -1.976562 0 -2.941406 0 -4.078125 L 0 -4.140625 C 0 -31.742188 0 -59.367188 0 -87.015625 C 14.84375 -87.015625 29.679688 -87.015625 44.515625 -87.015625 C 45.648438 -87.015625 46.613281 -86.609375 47.40625 -85.796875 C 48.207031 -84.984375 48.609375 -84.03125 48.609375 -82.9375 Z M 31.15625 -69.515625 L 17.5 -69.515625 L 17.5 -17.4375 L 31.15625 -17.4375 Z M 31.15625 -69.515625 "/></g></g></g><g fill="#ffd479" fill-opacity="1"><g transform="translate(111.493646, 232.029907)"><g><path d="M 7.75 -47.015625 L 7.75 -33.65625 C 7.75 -32.519531 8.15625 -31.546875 8.96875 -30.734375 C 9.78125 -29.921875 10.753906 -29.515625 11.890625 -29.515625 L 23.359375 -29.515625 L 23.359375 0 L 40.796875 0 L 40.796875 -29.515625 L 56.40625 -29.515625 C 56.40625 -47.441406 56.40625 -65.367188 56.40625 -83.296875 C 56.40625 -84.316406 56.039062 -85.191406 55.3125 -85.921875 C 54.582031 -86.648438 53.707031 -87.015625 52.6875 -87.015625 L 38.90625 -87.015625 L 38.90625 -47.015625 L 25.25 -47.015625 L 25.25 -87.015625 C 16.832031 -87.015625 8.414062 -87.015625 0 -87.015625 L 7.75 -75.671875 Z M 7.75 -47.015625 "/></g></g></g><g fill="#ffd479" fill-opacity="1"><g transform="translate(173.921997, 232.029907)"><g><path d="M 7.8125 -48 C 7.8125 -46.363281 8.582031 -45.117188 10.125 -44.265625 L 38.90625 -30.125 L 38.90625 -17.4375 L 25.25 -17.4375 L 25.25 -27.5 L 7.75 -35.796875 C 7.75 -23.847656 7.75 -11.914062 7.75 0 C 22.625 0 37.484375 0 52.328125 0 C 53.421875 0 54.375 -0.394531 55.1875 -1.1875 C 56 -1.976562 56.40625 -2.941406 56.40625 -4.078125 L 56.40625 -41.65625 L 25.25 -57.015625 L 25.25 -69.515625 L 38.90625 -69.515625 L 38.90625 -59.453125 L 56.40625 -51.40625 L 56.40625 -82.9375 C 56.40625 -84.03125 56 -84.984375 55.1875 -85.796875 C 54.375 -86.609375 53.421875 -87.015625 52.328125 -87.015625 C 34.878906 -87.015625 17.4375 -87.015625 0 -87.015625 L 7.75 -75.671875 Z M 7.8125 -48 "/></g></g></g><g fill="#ffd479" fill-opacity="1"><g transform="translate(236.350359, 232.029907)"><g><path d="M 7.8125 -75.671875 L 7.8125 0 L 25.25 0 L 25.25 -38.78125 L 38.109375 0.125 L 56.71875 0 L 56.53125 -0.484375 L 56.53125 -87.015625 L 39.09375 -87.015625 L 39.09375 -52.625 L 27.5625 -87.015625 C 18.375 -87.015625 9.1875 -87.015625 0 -87.015625 Z M 7.8125 -75.671875 "/></g></g></g><g fill="#ffd479" fill-opacity="1"><g transform="translate(299.083621, 232.029907)"><g><path d="M 17.5 -58.671875 L 17.5 -86.90625 L 0 -86.90625 L 0 -69.453125 Z M 17.5 -58.671875 "/></g></g></g><g fill="#ffd479" fill-opacity="1"><g transform="translate(322.605971, 232.029907)"><g><path d="M 0 -87.015625 C 0 -78.597656 0 -70.1875 0 -61.78125 L 11.28125 -69.515625 L 15.546875 -69.515625 L 15.546875 0 L 33.046875 0 L 33.046875 -69.515625 L 48.609375 -69.515625 L 48.609375 -87.015625 C 32.421875 -87.015625 16.21875 -87.015625 0 -87.015625 Z M 0 -87.015625 "/></g></g></g></svg>